<svg xmlns="http://www.w3.org/2000/svg" style="display:none">

  <!-- SST — escudo / shield -->
  <symbol id="icon-sst" viewBox="0 0 24 24" fill="none" stroke="currentColor" stroke-width="1.5" stroke-linecap="round" stroke-linejoin="round">
    <path d="M12 22s8-4 8-11V5l-8-3-8 3v6c0 7 8 11 8 11z"/>
  </symbol>

  <!-- Nómina — signo de pesos -->
  <symbol id="icon-nomina" viewBox="0 0 24 24" fill="none" stroke="currentColor" stroke-width="1.5" stroke-linecap="round" stroke-linejoin="round">
    <line x1="12" y1="1" x2="12" y2="23"/>
    <path d="M17 5H9.5a3.5 3.5 0 000 7h5a3.5 3.5 0 010 7H6"/>
  </symbol>

  <!-- Operación — pulso / actividad -->
  <symbol id="icon-operacion" viewBox="0 0 24 24" fill="none" stroke="currentColor" stroke-width="1.5" stroke-linecap="round" stroke-linejoin="round">
    <polyline points="22 12 18 12 15 21 9 3 6 12 2 12"/>
  </symbol>

  <!-- Relaciones Laborales — maletín / briefcase -->
  <symbol id="icon-relaciones" viewBox="0 0 24 24" fill="none" stroke="currentColor" stroke-width="1.5" stroke-linecap="round" stroke-linejoin="round">
    <rect x="2" y="7" width="20" height="14" rx="2" ry="2"/>
    <path d="M16 21V5a2 2 0 00-2-2h-4a2 2 0 00-2 2v16"/>
  </symbol>

  <!-- Mi Postulación — archivo con texto -->
  <symbol id="icon-postulacion" viewBox="0 0 24 24" fill="none" stroke="currentColor" stroke-width="1.5" stroke-linecap="round" stroke-linejoin="round">
    <path d="M14 2H6a2 2 0 00-2 2v16a2 2 0 002 2h12a2 2 0 002-2V8z"/>
    <polyline points="14 2 14 8 20 8"/>
    <line x1="16" y1="13" x2="8" y2="13"/>
    <line x1="16" y1="17" x2="8" y2="17"/>
    <polyline points="10 9 9 9 8 9"/>
  </symbol>

  <!-- Mi Perfil — persona con tarjeta (badge) -->
  <symbol id="icon-mi-perfil" viewBox="0 0 24 24" fill="none" stroke="currentColor" stroke-width="1.5" stroke-linecap="round" stroke-linejoin="round">
    <path d="M20 21v-2a4 4 0 00-4-4H8a4 4 0 00-4 4v2"/>
    <circle cx="12" cy="7" r="4"/>
  </symbol>

  <!-- Bienestar — corazón con pulso -->
  <symbol id="icon-bienestar" viewBox="0 0 24 24" fill="none" stroke="currentColor" stroke-width="1.5" stroke-linecap="round" stroke-linejoin="round">
    <path d="M20.84 4.61a5.5 5.5 0 00-7.78 0L12 5.67l-1.06-1.06a5.5 5.5 0 00-7.78 7.78l1.06 1.06L12 21.23l7.78-7.78 1.06-1.06a5.5 5.5 0 000-7.78z"/>
  </symbol>

  <!-- Selección — lupa con persona -->
  <symbol id="icon-seleccion" viewBox="0 0 24 24" fill="none" stroke="currentColor" stroke-width="1.5" stroke-linecap="round" stroke-linejoin="round">
    <circle cx="11" cy="11" r="8"/>
    <line x1="21" y1="21" x2="16.65" y2="16.65"/>
    <circle cx="11" cy="9" r="2.5"/>
    <path d="M7 15.5a5.5 5.5 0 018 0"/>
  </symbol>

  <!-- Gestión Humana — grupo de personas -->
  <symbol id="icon-gh" viewBox="0 0 24 24" fill="none" stroke="currentColor" stroke-width="1.5" stroke-linecap="round" stroke-linejoin="round">
    <path d="M17 21v-2a4 4 0 00-4-4H5a4 4 0 00-4 4v2"/>
    <circle cx="9" cy="7" r="4"/>
    <path d="M23 21v-2a4 4 0 00-3-3.87M16 3.13a4 4 0 010 7.75"/>
  </symbol>

  <!-- HubGH Admin — engranaje -->
  <symbol id="icon-hubgh-admin" viewBox="0 0 24 24" fill="none" stroke="currentColor" stroke-width="1.5" stroke-linecap="round" stroke-linejoin="round">
    <circle cx="12" cy="12" r="3"/>
    <path d="M19.4 15a1.65 1.65 0 00.33 1.82l.06.06a2 2 0 010 2.83 2 2 0 01-2.83 0l-.06-.06a1.65 1.65 0 00-1.82-.33 1.65 1.65 0 00-1 1.51V21a2 2 0 01-4 0v-.09A1.65 1.65 0 009 19.4a1.65 1.65 0 00-1.82.33l-.06.06a2 2 0 01-2.83-2.83l.06-.06A1.65 1.65 0 004.68 15a1.65 1.65 0 00-1.51-1H3a2 2 0 010-4h.09A1.65 1.65 0 004.6 9a1.65 1.65 0 00-.33-1.82l-.06-.06a2 2 0 012.83-2.83l.06.06A1.65 1.65 0 009 4.68a1.65 1.65 0 001-1.51V3a2 2 0 014 0v.09a1.65 1.65 0 001 1.51 1.65 1.65 0 001.82-.33l.06-.06a2 2 0 012.83 2.83l-.06.06A1.65 1.65 0 0019.4 9a1.65 1.65 0 001.51 1H21a2 2 0 010 4h-.09a1.65 1.65 0 00-1.51 1z"/>
  </symbol>

</svg>
